# xmcd
# Track frame offsets:
# 150
# 19562
# 37124
# 57803
# 78714
# 97341
# 118754
# 141305
# 158576
# 196989
# 223504
# 240492
# 269821
# 287330
# 311273
#
# Disc length: 4419 seconds
# Revision: 0
# Processed by: cddbd v1.4PL0 Copyright (c) Steve Scherf et al.
# Submitted via: VisiTrax 2.9.5.181 - For more info visit www.synapsa.com
#
DISCID=d711410f
DTITLE=Candi Staton - Young Hearts Run Free and House of Love
DYEAR=2002
DGENRE=R&B
TTITLE0=Run To Me
TTITLE1=Destiny
TTITLE2=What A Feeling
TTITLE3=You Bet Your Sweet, Sweet Love
TTITLE4=Young Hearts Run Free
TTITLE5=Living For You
TTITLE6=Summer Time With You
TTITLE7=I Know
TTITLE8=Victim
TTITLE9=Honest I Do Love You
TTITLE10=Yesterday Evening
TTITLE11=I Wonder Will I ever Get Over It
TTITLE12=I'm Gonna Make You Love Me
TTITLE13=So Blue
TTITLE14=Take My Hand, Precious Lord
EXTD=2 Original Albums on 1 CD. Ambassador of Soul Classics.Re-issued 200
EXTD=2 by SPY Records 46002-2.
EXTT0=
EXTT1=
EXTT2=
EXTT3=
EXTT4=
EXTT5=
EXTT6=
EXTT7=
EXTT8=
EXTT9=
EXTT10=
EXTT11=
EXTT12=
EXTT13=
EXTT14=
PLAYORDER=
